<!DOCTYPE svg PUBLIC "-//W3C//DTD SVG 1.1//EN" "http://www.w3.org/Graphics/SVG/1.1/DTD/svg11.dtd">
<svg version="1.1" xmlns="http://www.w3.org/2000/svg" xmlns:xlink="http://www.w3.org/1999/xlink" xml:space="preserve" width="432" height="290">
    <!-- Guide
    <g fill="none" stroke="grey" stroke-width=".1">
        <polyline points="228,50 0,145 228,240" />
        <polyline points="0,0 0,290" />
        <polyline points="0,145 380,145" />
        <polyline points="12,0 12,290" />
        <polyline points="24,0 24,290" />
        <polyline points="36,0 36,290" />
        <polyline points="48,0 48,290" />
        <polyline points="60,0 60,290" />
        <polyline points="72,0 72,290" />
        <polyline points="84,0 84,290" />
        <polyline points="96,0 96,290" />
        <polyline points="108,0 108,290" />
        <polyline points="120,0 120,290" />
        <polyline points="132,0 132,290" />
        <polyline points="144,0 144,290" />
        <polyline points="156,0 156,290" />
        <polyline points="168,0 168,290" />
        <polyline points="180,0 180,290" />
        <polyline points="192,0 192,290" />
        <polyline points="204,0 204,290" />
        <polyline points="216,0 216,290" />
        <polyline points="228,0 228,290" />
        <polyline points="240,0 240,290" />
        <polyline points="252,0 252,290" />
        <polyline points="264,0 264,290" />
        <polyline points="276,0 276,290" />
        <polyline points="288,0 288,290" />
        <polyline points="300,0 300,290" />
        <polyline points="312,0 312,290" />
        <polyline points="324,0 324,290" />
        <polyline points="336,0 336,290" />
        <polyline points="348,0 348,290" />
        <polyline points="360,0 360,290" />
        <polyline points="372,0 372,290" />
        <polyline points="384,0 384,290" />
        <polyline points="396,0 396,290" />
        <polyline points="408,0 408,290" />
        <polyline points="420,0 420,290" />
    </g> -->
    <!-- Convey -->
    <g fill="none" stroke="deepskyblue" stroke-linecap="round" stroke-linejoin="round" stroke-width="10">
        <!-- C --><polyline points="36,130 12,140 12,150 36,160" />
        <!-- O --><polygon points="72,115 48,125 48,165 72,175" />
        <!-- N --><polyline points="84,180 84,110 108,100 108,190" />
        <!-- V --><polyline points="120,95 132,200 144,85" />
        <!-- E --><polyline points="156,145 180,145 180,70 156,80 156,210 180,220" />
        <!-- Y --><polyline points="192,65 192,145 216,145 216,55 216,235 192,225" />
    </g>
    <!-- Sound Waves -->
    <g fill="none" stroke="deepskyblue" stroke-linecap="round" stroke-linejoin="round" stroke-width="10">
        <path d="M 232.80,87.40 Q 240,145 232.80,202.60" stroke-width="2" />
        <path d="M 302.64,70.12 Q 312,145 302.64,219.88" stroke-width="6" />
        <path d="M 372.48,52.84 Q 384,145 372.48,237.16" stroke-width="10" />
    </g>
</svg>
