<!DOCTYPE svg PUBLIC "-//W3C//DTD SVG 1.1//EN" "http://www.w3.org/Graphics/SVG/1.1/DTD/svg11.dtd">
<svg version="1.1" xmlns="http://www.w3.org/2000/svg" xmlns:xlink="http://www.w3.org/1999/xlink" xml:space="preserve" width="480" height="480" viewBox="0 0 480 480" preserveAspectRatio="xMidYMid meet">
    <g fill="white" stroke="none">
        <circle cx="240" cy="240" r="220" />
    </g>
    <defs>
        <g id="digest">
            <rect width="90" height="120" fill="deepskyblue" />
            <g fill="none" stroke="white">
                <g stroke-width="1">
                    <circle cx="45" cy="6" r="3" />
                    <line x1="4" y1="6" x2="39" y2="6" />
                    <line x1="51" y1="6" x2="86" y2="6" />
                    <line x1="4" y1="116" x2="86" y2="116" />
                </g>
                <line x1="4" y1="14" x2="86" y2="14" stroke-width="4" />
                <g stroke-width="2">
                    <rect x="46" y="20" width="39" height="40" />
                    <rect x="5" y="76" width="28" height="28" />
                    <line x1="4" y1="20" x2="43" y2="20" />
                    <line x1="4" y1="24" x2="43" y2="24" />
                    <line x1="4" y1="28" x2="43" y2="28" />
                    <line x1="4" y1="32" x2="43" y2="32" />
                    <line x1="4" y1="36" x2="43" y2="36" />
                    <line x1="4" y1="40" x2="43" y2="40" />
                    <line x1="4" y1="44" x2="43" y2="44" />
                    <line x1="4" y1="48" x2="43" y2="48" />
                    <line x1="4" y1="52" x2="43" y2="52" />
                    <line x1="4" y1="56" x2="43" y2="56" />
                    <line x1="4" y1="60" x2="43" y2="60" />
                    <line x1="4" y1="64" x2="86" y2="64" />
                    <line x1="4" y1="68" x2="86" y2="68" />
                    <line x1="4" y1="72" x2="86" y2="72" />
                    <line x1="36" y1="76" x2="86" y2="76" />
                    <line x1="36" y1="80" x2="86" y2="80" />
                    <line x1="36" y1="84" x2="86" y2="84" />
                    <line x1="36" y1="88" x2="86" y2="88" />
                    <line x1="36" y1="92" x2="86" y2="92" />
                    <line x1="36" y1="96" x2="86" y2="96" />
                    <line x1="36" y1="100" x2="86" y2="100" />
                    <line x1="36" y1="104" x2="86" y2="104" />
                    <line x1="4" y1="108" x2="86" y2="108" />
                    <line x1="4" y1="112" x2="86" y2="112" />
                </g>
            </g>
        </g>
        <g id="face">
            <circle fill="deepskyblue" r="32" />
            <circle fill="white" r="6" cx="-12" cy="-12" />
            <circle fill="white" r="6" cx="12" cy="-12" />
            <path stroke="white" stroke-width="6" stroke-linecap="round" fill="none" d="M -18 8 Q 0 24 18 8" />
        </g>
        <marker id="arrowhead" markerWidth="3" markerHeight="4" refX="0" refY="2" orient="auto">
            <polygon fill="deepskyblue" points="0 0, 3 2, 0 4" />
        </marker>
    </defs>
    <use xlink:href="#digest" x="195" y="60" />
    <use xlink:href="#face" x="120" y="240" />
    <use xlink:href="#face" x="360" y="240" />
    <use xlink:href="#face" x="240" y="360" />
    <g stroke="deepskyblue" stroke-width="8" fill="none">
        <line x1="240" y1="185" x2="240" y2="300" marker-end="url(#arrowhead)" />
        <path d="M240 185 Q 240 240 180 240" marker-end="url(#arrowhead)" />
        <path d="M240 185 Q 240 240 300 240" marker-end="url(#arrowhead)" />
    </g>
</svg>