<!DOCTYPE svg PUBLIC "-//W3C//DTD SVG 1.1//EN" "http://www.w3.org/Graphics/SVG/1.1/DTD/svg11.dtd">
<svg version="1.1" xmlns="http://www.w3.org/2000/svg" xmlns:xlink="http://www.w3.org/1999/xlink" xml:space="preserve" width="480" height="480" viewBox="0 0 480 480" preserveAspectRatio="xMidYMid meet">
    <defs>
        <radialGradient id="shine" cx="50%" cy="50%" r="50%" fx="50%" fy="50%">
            <stop offset="0%" style="stop-color:azure;stop-opacity:1" />
            <stop offset="100%" style="stop-color:white;stop-opacity:0" />
        </radialGradient>
    </defs>
    <mask id="diamond-mask">
        <rect x="0" y="0" width="480" height="480" fill="black" />
        <rect x="60" y="239" width="80" height="80" fill="white" />
    </mask>
    <g fill="deepskyblue" stroke="none">
        <circle cx="240" cy="240" r="220" />
    </g>
    <!-- Diamond -->
    <g>
        <!-- Shine -->
        <circle cx="100" cy="310" r="35" fill="url(#shine)" mask="url(#diamond-mask)" />
        <g stroke="azure" stroke-linecap="butt"  stroke-linejoin="miter">
            <g fill="white">
                <!-- Outer -->
                <polygon points="95,304 90,310 100,318 110,310 105,304" stroke-width="1" />
            </g>
            <g fill="none">
                <!-- Inner -->
                <polyline points="96,304 93,310 100,318 107,310 104,304" stroke-width="0.8" />
                <polyline points="98,304 96,310 100,318 104,310 102,304" stroke-width="0.4" />
                <!-- Cross -->
                <polyline points="90,310 110,310" stroke-width="0.2" />
            </g>
        </g>
    </g>
    <!-- Poop -->
    <g fill="white" stroke="none">
        <path d="M 380,164 C 375,175 400,180 395,185 Q 410,195 405,200 Q 420,222 380,219 Q 340,222 355,205 Q 350,200 360,192 Q 355,189 365,180 Q 360,174 380,164" />
    </g>
    <!-- Stink Lines -->
    <g fill="none" stroke="white" stroke-linecap="round" stroke-linejoin="round" stroke-width="1">
        <path d="M 370,160 C 368,158 368,156 370,154 S 374,150 370,148" />
        <path d="M 388,170 C 390,168 390,166 388,164 S 386,160 388,158" />
    </g>
    <!-- Flies -->
    <g>
        <g stroke="none" fill="azure">
            <path d="M 382,150 C 382,140 392,150 382,150 S 382,160 382,150" />
        </g>
        <g stroke="black" fill="black" stroke-linecap="round" stroke-width="1">
            <path d="M 381,149 C 386,152 384,154 381,149" />
        </g>
    </g>
    <g fill="white" stroke-linejoin="miter">
        <!-- Fulcrum -->
        <polygon points="200,360 240,150 280,360" />
    </g>
    <g fill="none">
        <g stroke="white" stroke-linecap="round" stroke-width="1">
            <!-- Left Wires -->
            <polyline points="50,320 100,200 150,320" />
            <!-- Right Wires -->
            <polyline points="330,220 380,100 430,220" />
        </g>
        <g stroke="black" stroke-linecap="square">
            <g stroke-width="5">
                <!-- Beam -->
                <polyline points="100,200 380,100" />
            </g>
            <g stroke-width="3">
                <!-- Left Plate -->
                <polygon points="48,320 152,320" />
                <!-- Right Plate -->
                <polygon points="328,220 432,220" />
            </g>
        </g>
    </g>
</svg>
